<svg width="266" height="124" viewBox="0 0 266 124" fill="none" xmlns="http://www.w3.org/2000/svg">
  <path
    d="M106.594 10.4986V9.9665H109.147V6.72669C109.147 6.15913 108.988 5.76303 108.668 5.53245C108.348 5.30188 107.921 5.27528 107.391 5.45264L106.964 5.61227V5.34623L113.935 2V9.9665H120.376V10.4986H113.935V22.0212C113.935 23.6145 113.917 25.2078 113.882 26.8011C113.846 28.3944 113.891 29.8192 114.015 31.0755C114.139 32.3318 114.406 33.3516 114.812 34.1291C115.221 34.9095 115.849 35.2967 116.702 35.2967C117.41 35.2967 118.05 35.1105 118.619 34.738C119.185 34.3656 119.665 33.8985 120.056 33.331L120.429 33.597C119.365 35.0484 118.299 35.9855 117.235 36.4111C116.172 36.8368 115.336 37.0496 114.735 37.0496C113.209 37.0496 112.066 36.6506 111.301 35.8554C110.537 35.0602 109.998 34.0315 109.678 32.7752C109.358 31.5189 109.189 30.1207 109.171 28.5806C109.153 27.0405 109.145 25.527 109.145 24.0402V10.4986H106.591H106.594Z"
    fill="currentColor" />
  <path
    d="M122.452 10.2355V9.96945H130.65V10.2355C130.152 10.2355 129.799 10.4838 129.586 10.9775C129.373 11.4741 129.551 12.4643 130.119 13.9512L136.56 31.3681L142.361 15.7544L141.667 13.9483C141.134 12.4614 140.613 11.4711 140.097 10.9745C139.582 10.4808 139.06 10.2325 138.527 10.2325V9.9665H146.724V10.2325C146.227 10.2325 145.874 10.4808 145.661 10.9745C145.448 11.4711 145.625 12.4614 146.194 13.9483L152.635 31.3652L159.075 13.9483C159.641 12.4614 159.822 11.4711 159.609 10.9745C159.395 10.4808 159.04 10.2325 158.545 10.2325V9.9665H162.802V10.2325C162.305 10.2325 161.798 10.4808 161.285 10.9745C160.77 11.4711 160.228 12.4614 159.662 13.9483L151.308 36.5175H150.031L142.633 16.5496L135.236 36.5175H133.959L125.604 13.9483C125.036 12.4614 124.505 11.4711 124.008 10.9745C123.51 10.4808 122.997 10.2325 122.464 10.2325L122.452 10.2355Z"
    fill="currentColor" />
  <path
    d="M161.632 22.7129C161.632 20.4131 162.014 18.4296 162.776 16.7654C163.537 15.1011 164.532 13.7295 165.756 12.6506C166.979 11.5716 168.354 10.7735 169.88 10.2621C171.405 9.75071 172.931 9.49353 174.457 9.49353C176.409 9.49353 178.163 9.90146 179.727 10.7144C181.289 11.5302 182.619 12.6003 183.718 13.9276C184.817 15.2548 185.67 16.7772 186.272 18.4946C186.873 20.2121 187.175 21.9739 187.175 23.78C187.175 26.0443 186.802 28.0101 186.058 29.6743C185.315 31.3386 184.337 32.7191 183.131 33.8157C181.925 34.9124 180.569 35.7194 179.061 36.2308C177.553 36.7422 176.018 36.9994 174.457 36.9994C172.896 36.9994 171.397 36.689 169.853 36.0712C168.31 35.4534 166.935 34.5311 165.729 33.3103C164.523 32.0894 163.537 30.5937 162.776 28.823C162.011 27.0523 161.632 25.0186 161.632 22.7159V22.7129ZM176.267 35.9884C177.508 36.0594 178.599 35.8554 179.541 35.3765C180.48 34.8976 181.253 34.2444 181.857 33.4108C182.459 32.5801 182.912 31.6224 183.214 30.5434C183.516 29.4645 183.667 28.3589 183.667 27.2238C183.667 25.3822 183.365 23.4726 182.764 21.4891C182.16 19.5056 181.336 17.7024 180.29 16.0737C179.244 14.4449 178.018 13.1088 176.617 12.0653C175.215 11.0218 173.716 10.5163 172.119 10.5518C170.914 10.5518 169.874 10.809 169.006 11.3233C168.135 11.8377 167.418 12.4998 166.849 13.3157C166.28 14.1315 165.866 15.0686 165.599 16.1298C165.332 17.191 165.199 18.2907 165.199 19.4228C165.199 21.229 165.492 23.0883 166.076 24.9979C166.662 26.9105 167.45 28.6634 168.443 30.2567C169.435 31.85 170.606 33.1772 171.957 34.2385C173.304 35.2997 174.741 35.885 176.267 35.9914V35.9884ZM170.997 23.0321C171.882 22.6419 172.576 22.2015 173.073 21.7049C173.571 21.2083 174.013 20.5195 174.404 19.6327C174.795 20.5195 175.236 21.2083 175.734 21.7049C176.231 22.2015 176.922 22.6419 177.811 23.0321C176.922 23.4223 176.231 23.8657 175.734 24.3594C175.236 24.856 174.795 25.5448 174.404 26.4316C174.013 25.5477 173.568 24.856 173.073 24.3594C172.576 23.8657 171.885 23.4223 170.997 23.0321Z"
    fill="currentColor" />
  <path
    d="M107.13 50.8277V50.5616L114.101 47.2154V50.136C115.236 49.0038 116.495 48.1613 117.878 47.6145C119.262 47.0647 120.663 46.7572 122.082 46.6863C123.963 46.6508 125.613 47.0233 127.032 47.8007C128.451 48.5811 129.639 49.6157 130.599 50.9075C131.556 52.1993 132.258 53.6684 132.703 55.3149C133.147 56.9614 133.343 58.6523 133.289 60.3875C133.236 62.1227 132.925 63.8224 132.359 65.4866C131.79 67.1509 130.958 68.6378 129.859 69.9473C128.76 71.2568 127.391 72.3032 125.761 73.0807C124.129 73.8581 122.212 74.2483 120.014 74.2483C119.022 74.2128 118.035 74.0975 117.06 73.9024C116.083 73.7073 115.099 73.3792 114.107 72.921V83.0632C114.107 84.5501 114.32 85.5403 114.747 86.0369C115.173 86.5306 115.686 86.7789 116.29 86.7789V87.045H107.136V86.7789C107.74 86.7789 108.253 86.5306 108.679 86.0369C109.106 85.5403 109.319 84.5501 109.319 83.0632V51.9451C109.319 51.3805 109.159 50.9814 108.839 50.7508C108.519 50.5203 108.096 50.4937 107.563 50.671L107.136 50.8306L107.13 50.8277ZM114.101 69.9443C114.987 71.0765 116.115 71.9544 117.481 72.5722C118.847 73.193 120.239 73.4856 121.658 73.4472C123.788 73.3763 125.471 72.7053 126.715 71.4283C127.957 70.1542 128.798 68.5786 129.242 66.7016C129.687 64.8245 129.767 62.7996 129.482 60.621C129.198 58.4454 128.606 56.4441 127.699 54.6203C126.795 52.7964 125.622 51.2918 124.185 50.1064C122.749 48.921 121.107 48.3624 119.262 48.4333C118.411 48.5042 117.532 48.7171 116.628 49.0718C115.724 49.4265 114.88 49.9557 114.101 50.6651V69.9443Z"
    fill="currentColor" />
  <path
    d="M147.72 47.6352C148.783 47.6352 149.838 47.8244 150.884 48.1998C151.93 48.5781 152.881 49.1161 153.74 49.8167C154.596 50.5203 155.316 51.3479 155.902 52.3057C156.486 53.2635 156.845 54.3247 156.984 55.4893H139.386C139.351 55.7643 139.327 56.0539 139.309 56.3614C139.291 56.6688 139.283 56.9614 139.283 57.2334C139.283 59.3913 139.617 61.4014 140.287 63.2667C140.956 65.1319 141.839 66.74 142.935 68.0939C144.032 69.4477 145.285 70.506 146.692 71.2775C148.099 72.049 149.539 72.4156 151.014 72.383C152.042 72.3505 153.011 72.0934 153.921 71.6115C154.83 71.1326 155.695 70.4912 156.519 69.6872C157.342 68.8831 158.121 67.9667 158.859 66.941C159.597 65.9153 160.308 64.8363 160.995 63.7071V52.6693C160.995 52.1224 160.841 51.7381 160.533 51.5135C160.225 51.2918 159.813 51.2652 159.298 51.4366L158.886 51.5903V51.3332L165.626 48.0993V55.1317C166.141 54.1384 166.698 53.1896 167.296 52.2821C167.895 51.3746 168.582 50.5794 169.355 49.8936C170.129 49.2107 171.009 48.652 172.004 48.2264C172.999 47.7978 174.149 47.5849 175.452 47.5849C176.824 47.5849 177.802 47.8066 178.385 48.253C178.969 48.6993 179.295 49.196 179.363 49.7428C179.431 50.2897 179.295 50.7952 178.951 51.2563C178.607 51.7175 178.178 51.9658 177.665 52.0012C177.185 52.0012 176.729 51.8653 176.303 51.5903C175.873 51.3154 175.452 50.9991 175.041 50.6415C174.629 50.2838 174.226 49.9586 173.832 49.666C173.438 49.3763 172.999 49.2285 172.519 49.2285C171.491 49.2285 170.529 49.6482 169.637 50.4877C168.745 51.3273 167.922 52.3353 167.166 53.5177C166.411 54.6971 165.741 55.9239 165.16 57.1891C164.577 58.4572 164.047 59.5007 163.567 60.3225C162.639 61.9985 161.671 63.6687 160.66 65.327C159.647 66.9883 158.515 68.4781 157.265 69.7936C156.012 71.112 154.617 72.182 153.07 73.0038C151.527 73.8256 149.743 74.2365 147.72 74.2365C146.245 74.2365 144.787 73.9379 143.347 73.3379C141.907 72.7407 140.636 71.848 139.54 70.6686C138.441 69.4891 137.549 68.0436 136.865 66.3291C136.178 64.6176 135.837 62.6488 135.837 60.4259C135.837 58.203 136.204 56.2845 136.942 54.6764C137.68 53.0684 138.622 51.7411 139.771 50.6976C140.921 49.6541 142.198 48.8826 143.605 48.386C145.012 47.8894 146.384 47.6411 147.72 47.6411V47.6352ZM152.712 54.978C152.128 52.959 151.278 51.3568 150.164 50.1774C149.05 48.9949 147.652 48.4244 145.969 48.457C145.009 48.457 144.159 48.6373 143.421 48.9949C142.684 49.3556 142.05 49.8345 141.516 50.4316C140.983 51.0317 140.548 51.7145 140.204 52.486C139.86 53.2546 139.62 54.0852 139.484 54.975H152.709L152.712 54.978ZM158.886 73.5123C159.469 73.5123 159.967 73.2728 160.379 72.7939C160.791 72.3151 160.995 71.3573 160.995 69.9177V69.6606C160.995 68.6348 161.131 67.6652 161.407 66.7607C161.682 65.8532 162.041 65.0491 162.488 64.3486C162.933 63.648 163.43 63.0893 163.981 62.6814C164.529 62.2705 165.077 62.0665 165.629 62.0665V69.9207C165.629 71.3573 165.833 72.318 166.245 72.7969C166.657 73.2758 167.154 73.5152 167.738 73.5152V73.7724H158.889V73.5152L158.886 73.5123Z"
    fill="currentColor" />
  <path
    d="M183.496 47.2184C183.638 45.5896 183.967 43.9874 184.479 42.4119C184.992 40.8363 185.721 39.4204 186.663 38.1641C187.602 36.9077 188.766 35.8997 190.15 35.1371C191.533 34.3744 193.148 33.9961 194.993 33.9961C195.491 33.9961 196.146 34.0227 196.963 34.0759C197.778 34.1291 198.587 34.2444 199.384 34.4217C200.181 34.5991 200.874 34.8651 201.461 35.2169C202.047 35.5716 202.337 36.0505 202.337 36.6506C202.373 37.2891 202.169 37.8182 201.724 38.2439C201.28 38.6695 200.773 38.8824 200.207 38.8824C199.603 38.8824 199.126 38.6607 198.771 38.2173C198.415 37.7739 198.033 37.2979 197.627 36.7836C197.218 36.2722 196.715 35.8022 196.11 35.3765C195.506 34.9509 194.638 34.738 193.503 34.738C192.368 34.738 191.4 35.075 190.709 35.746C190.016 36.42 189.486 37.3216 189.113 38.4538C188.739 39.5859 188.49 40.9073 188.369 42.4089C188.245 43.9135 188.182 45.5157 188.182 47.2154H196.007V47.7475H188.182V69.7847C188.182 71.2716 188.396 72.2619 188.822 72.7585C189.249 73.2551 189.761 73.5004 190.366 73.5004V73.7665H181.212V73.5004C181.816 73.5004 182.328 73.2521 182.755 72.7585C183.182 72.2619 183.395 71.2716 183.395 69.7847V48.5427C183.395 48.2944 183.413 48.0313 183.448 47.7445H180.095V47.2125H183.502L183.496 47.2184Z"
    fill="currentColor" />
  <path
    d="M195.473 59.9618C195.473 57.662 195.855 55.6785 196.617 54.0143C197.378 52.35 198.356 50.9784 199.544 49.8995C200.732 48.8205 202.053 48.0224 203.508 47.511C204.962 46.9996 206.381 46.7425 207.765 46.7425C208.864 46.7425 209.954 46.9376 211.038 47.3278C212.12 47.7179 213.106 48.2766 213.992 49.0009C214.878 49.728 215.625 50.5853 216.229 51.5756C216.83 52.5658 217.204 53.6655 217.346 54.8686H199.144C199.108 55.1524 199.082 55.4539 199.064 55.7702C199.046 56.0894 199.037 56.3909 199.037 56.6718C199.037 58.9006 199.375 60.9728 200.047 62.8853C200.72 64.7979 201.618 66.4533 202.734 67.8515C203.851 69.2497 205.128 70.3463 206.565 71.1445C208.002 71.9426 209.483 72.3387 211.009 72.3387C212.25 72.3387 213.465 72.0638 214.656 71.5169C215.844 70.9671 216.952 70.0744 217.983 68.8358L218.196 69.0487C216.955 70.8548 215.402 72.1732 213.539 73.0038C211.675 73.8345 209.75 74.2513 207.765 74.2513C206.239 74.2513 204.731 73.9409 203.241 73.3231C201.751 72.7053 200.438 71.783 199.304 70.5621C198.169 69.3413 197.245 67.8456 196.537 66.0749C195.826 64.3042 195.473 62.2705 195.473 59.9677V59.9618ZM199.251 54.3335H212.929C212.324 52.2436 211.447 50.5882 210.295 49.3674C209.142 48.1466 207.697 47.5524 205.958 47.5879C204.965 47.5879 204.085 47.7741 203.324 48.1466C202.56 48.519 201.905 49.0156 201.354 49.6335C200.803 50.2542 200.35 50.9607 199.997 51.7588C199.642 52.554 199.393 53.4142 199.251 54.3335Z"
    fill="currentColor" />
  <path
    d="M232.621 46.7395C233.047 46.7395 233.658 46.775 234.457 46.8459C235.257 46.9169 236.036 47.0587 236.798 47.2716C237.559 47.4844 238.217 47.7859 238.768 48.1732C239.319 48.5634 239.592 49.06 239.592 49.6601C239.592 50.1921 239.387 50.7213 238.978 51.2534C238.569 51.7854 238.081 52.016 237.515 51.9421C237.088 51.9066 236.679 51.6672 236.291 51.2268C235.9 50.7833 235.456 50.2986 234.961 49.7665C234.463 49.2344 233.853 48.7585 233.124 48.3328C232.396 47.9071 231.483 47.6943 230.384 47.6943C229.178 47.6943 228.138 47.9515 227.27 48.4629C226.399 48.9772 225.682 49.6571 225.114 50.5084C224.545 51.3568 224.13 52.3146 223.863 53.3758C223.597 54.437 223.463 55.5366 223.463 56.6688C223.463 58.7587 223.766 60.7038 224.367 62.5099C224.968 64.316 225.768 65.9005 226.761 67.2632C227.753 68.6259 228.897 69.7522 230.194 70.636C231.489 71.5228 232.837 72.0608 234.238 72.2559C235.639 72.451 237.05 72.2825 238.469 71.7505C239.888 71.2184 241.2 70.2458 242.406 68.8299L242.619 69.0427C241.378 70.8489 239.826 72.1673 237.962 72.9979C236.099 73.8285 234.173 74.2453 232.188 74.2453C230.662 74.2453 229.154 73.935 227.664 73.3172C226.174 72.6993 224.862 71.7771 223.727 70.5562C222.592 69.3354 221.668 67.8396 220.96 66.069C220.249 64.2983 219.897 62.2646 219.897 59.9618C219.897 57.8719 220.243 56.0066 220.933 54.3601C221.627 52.7136 222.557 51.3243 223.727 50.1921C224.897 49.06 226.245 48.1998 227.771 47.6174C229.297 47.0321 230.911 46.7425 232.615 46.7425L232.621 46.7395Z"
    fill="currentColor" />
  <path
    d="M242.788 47.7475V47.2154H245.342V43.9756C245.342 43.411 245.182 43.0119 244.862 42.7814C244.542 42.5508 244.115 42.5242 243.585 42.7016L243.158 42.8612V42.5951L250.129 39.2489V47.2154H256.57V47.7475H250.129V59.2701C250.129 60.8634 250.112 62.4567 250.076 64.05C250.04 65.6433 250.085 67.0681 250.209 68.3244C250.334 69.5807 250.6 70.6006 251.006 71.378C251.415 72.1584 252.043 72.5456 252.896 72.5456C253.604 72.5456 254.244 72.3594 254.813 71.9869C255.379 71.6145 255.859 71.1474 256.25 70.5799L256.623 70.8459C255.56 72.2973 254.493 73.2344 253.43 73.6601C252.366 74.0857 251.531 74.2986 250.929 74.2986C249.404 74.2986 248.26 73.8995 247.496 73.1043C246.731 72.3062 246.192 71.2805 245.872 70.0241C245.552 68.7678 245.383 67.3696 245.366 65.8295C245.348 64.2894 245.339 62.776 245.339 61.2891V47.7475H242.785H242.788Z"
    fill="currentColor" />
  <path
    d="M125.228 98.9045C125.228 96.6048 125.61 94.6213 126.372 92.957C127.133 91.2928 128.111 89.9212 129.299 88.8422C130.487 87.7633 131.808 86.9651 133.263 86.4537C134.717 85.9423 136.136 85.6852 137.52 85.6852C138.619 85.6852 139.709 85.8803 140.793 86.2705C141.875 86.6607 142.861 87.2194 143.747 87.9436C144.633 88.6708 145.379 89.528 145.984 90.5183C146.585 91.5115 146.959 92.6082 147.101 93.8113H128.899C128.863 94.0951 128.837 94.3966 128.819 94.7129C128.801 95.0321 128.792 95.3337 128.792 95.6145C128.792 97.8433 129.13 99.9155 129.802 101.828C130.475 103.741 131.373 105.396 132.489 106.794C133.606 108.192 134.883 109.289 136.32 110.087C137.757 110.882 139.238 111.281 140.764 111.281C142.005 111.281 143.22 111.007 144.411 110.46C145.599 109.91 146.707 109.017 147.738 107.779L147.951 107.991C146.71 109.798 145.157 111.116 143.294 111.947C141.43 112.777 139.505 113.194 137.52 113.194C135.994 113.194 134.486 112.884 132.996 112.266C131.506 111.648 130.193 110.726 129.059 109.505C127.924 108.284 127 106.788 126.292 105.018C125.581 103.247 125.228 101.213 125.228 98.9104V98.9045ZM129.005 93.2763H142.684C142.079 91.1863 141.202 89.531 140.05 88.3101C138.897 87.0893 137.452 86.4951 135.713 86.5306C134.72 86.5306 133.84 86.7168 133.079 87.0893C132.315 87.4617 131.66 87.9584 131.109 88.5762C130.558 89.1969 130.105 89.9034 129.752 90.7016C129.397 91.4997 129.148 92.3569 129.005 93.2763Z"
    fill="currentColor" />
  <path
    d="M147.32 86.4242V86.1581H156.474V86.4242C155.87 86.4242 155.455 86.6725 155.224 87.1662C154.993 87.6628 155.197 88.653 155.837 90.1399L163.555 107.983L168.025 97.8404C168.523 96.7082 168.902 95.443 169.169 94.0448C169.435 92.6466 169.506 91.2928 169.382 89.9833C169.258 88.6737 168.911 87.5061 168.345 86.4774C167.776 85.4517 166.908 84.76 165.738 84.4052C167.228 83.8731 168.487 83.6071 169.515 83.6071C171.112 83.6071 172.131 84.2101 172.576 85.4132C173.02 86.6163 172.78 88.2806 171.859 90.406L162.014 112.709H160.791L151.05 90.1399C150.41 88.653 149.782 87.6628 149.16 87.1662C148.538 86.6725 147.927 86.4242 147.323 86.4242H147.32Z"
    fill="currentColor" />
  <path
    d="M173.941 98.9045C173.941 96.6048 174.324 94.6213 175.085 92.957C175.846 91.2928 176.824 89.9212 178.012 88.8422C179.2 87.7633 180.521 86.9651 181.976 86.4537C183.43 85.9423 184.85 85.6852 186.233 85.6852C187.332 85.6852 188.422 85.8803 189.507 86.2705C190.588 86.6607 191.575 87.2194 192.46 87.9436C193.346 88.6708 194.093 89.528 194.697 90.5183C195.298 91.5115 195.672 92.6082 195.814 93.8113H177.612C177.576 94.0951 177.55 94.3966 177.532 94.7129C177.514 95.0321 177.505 95.3337 177.505 95.6145C177.505 97.8433 177.843 99.9155 178.516 101.828C179.188 103.741 180.086 105.396 181.203 106.794C182.32 108.192 183.596 109.289 185.033 110.087C186.47 110.882 187.951 111.281 189.477 111.281C190.718 111.281 191.933 111.007 193.124 110.46C194.312 109.91 195.42 109.017 196.451 107.779L196.664 107.991C195.423 109.798 193.871 111.116 192.007 111.947C190.144 112.777 188.218 113.194 186.233 113.194C184.707 113.194 183.199 112.884 181.709 112.266C180.219 111.648 178.907 110.726 177.772 109.505C176.637 108.284 175.713 106.788 175.005 105.018C174.294 103.247 173.941 101.213 173.941 98.9104V98.9045ZM177.719 93.2763H191.397C190.792 91.1863 189.915 89.531 188.763 88.3101C187.611 87.0893 186.165 86.4951 184.426 86.5306C183.433 86.5306 182.554 86.7168 181.792 87.0893C181.028 87.4617 180.373 87.9584 179.822 88.5762C179.271 89.1969 178.818 89.9034 178.465 90.7016C178.11 91.4997 177.861 92.3569 177.719 93.2763Z"
    fill="currentColor" />
  <path
    d="M205.448 86.1581V91.946C206.476 90.0335 207.842 88.5023 209.545 87.3524C211.249 86.2025 213.219 85.6261 215.453 85.6261C217.547 85.6261 219.159 86.0517 220.296 86.9001C221.431 87.7485 222.284 88.857 222.85 90.2197C223.416 91.5825 223.754 93.1403 223.86 94.8932C223.967 96.6461 224.02 98.4257 224.02 100.229V107.557C224.02 109.824 224.145 111.692 224.394 113.159C224.643 114.628 224.998 115.778 225.457 116.611C225.919 117.442 226.494 118.018 227.187 118.337C227.881 118.657 228.651 118.816 229.501 118.816C230.209 118.816 230.982 118.719 231.815 118.524C232.647 118.329 233.634 118 234.769 117.542C235.548 117.223 236.259 117.081 236.899 117.117C237.538 117.152 238.095 117.303 238.575 117.569C239.055 117.835 239.461 118.196 239.799 118.657C240.137 119.115 240.412 119.629 240.623 120.197C239.84 120.587 238.857 120.983 237.669 121.391C236.481 121.799 235.142 122.003 233.652 122.003C232.517 122.003 231.37 121.728 230.218 121.181C229.066 120.631 227.958 119.898 226.891 118.976C225.828 118.054 224.823 117.001 223.884 115.816C222.945 114.631 222.127 113.38 221.437 112.074C220.744 110.764 220.205 109.446 219.814 108.118C219.423 106.791 219.227 105.544 219.227 104.373C219.227 102.532 219.218 100.578 219.2 98.5055C219.183 96.4333 219.014 94.5326 218.694 92.7974C218.374 91.0622 217.817 89.6285 217.017 88.4964C216.217 87.3642 215.038 86.7966 213.477 86.7966C211.915 86.7966 210.345 87.3997 208.873 88.6028C207.4 89.8059 206.257 91.346 205.439 93.2231V108.73C205.439 110.217 205.653 111.208 206.079 111.704C206.506 112.201 207.018 112.446 207.623 112.446V112.712H198.468V112.446C199.073 112.446 199.585 112.198 200.012 111.704C200.438 111.208 200.652 110.217 200.652 108.73V90.8878C200.652 90.3202 200.492 89.9241 200.172 89.6936C199.852 89.463 199.428 89.4364 198.895 89.6137L198.468 89.7734V89.5073L205.439 86.1611L205.448 86.1581Z"
    fill="currentColor" />
  <path
    d="M230.357 86.1049V82.9183C230.357 82.3508 230.197 81.9547 229.877 81.7241C229.557 81.4935 229.131 81.4669 228.6 81.6443L228.174 81.8039V81.5379L235.145 78.1916V86.1049H239.455C240.839 86.1049 242.24 86.0872 243.659 86.0517C245.078 86.0163 246.559 85.9719 248.103 85.9187C249.646 85.8655 251.305 85.768 253.08 85.6261C253.329 85.5906 253.566 85.5729 253.8 85.5729H254.517C255.652 85.5729 256.742 85.6615 257.79 85.8389C258.836 86.0163 259.761 86.2646 260.558 86.5809C261.354 86.9001 261.994 87.2696 262.474 87.6953C262.954 88.121 263.194 88.5821 263.194 89.0757C263.194 89.6078 262.963 90.1281 262.501 90.6424C262.039 91.1568 261.509 91.3962 260.904 91.3578C260.406 91.3223 259.953 91.0386 259.547 90.5094C259.138 89.9773 258.67 89.395 258.137 88.7565C257.426 87.9436 256.629 87.3051 255.743 86.8439C254.855 86.3858 253.969 86.1552 253.083 86.1552C251.308 86.2616 249.649 86.3503 248.106 86.4212C246.562 86.4922 245.081 86.5365 243.662 86.5543C242.243 86.572 240.842 86.5897 239.458 86.6075C238.075 86.6252 236.638 86.6341 235.148 86.6341V98.2099C235.148 99.8032 235.13 101.396 235.094 102.99C235.059 104.583 235.103 106.008 235.228 107.264C235.352 108.521 235.619 109.54 236.025 110.318C236.433 111.098 237.062 111.485 237.915 111.485C238.623 111.485 239.263 111.299 239.832 110.927C240.397 110.554 240.877 110.087 241.268 109.52L241.642 109.786C240.578 111.237 239.512 112.174 238.448 112.6C237.384 113.025 236.549 113.238 235.948 113.238C234.422 113.238 233.278 112.839 232.514 112.044C231.75 111.249 231.21 110.22 230.891 108.964C230.571 107.708 230.402 106.309 230.384 104.769C230.366 103.229 230.357 101.716 230.357 100.229V86.6341C229.966 86.6341 229.56 86.6429 229.134 86.6607C228.707 86.6784 228.263 86.6873 227.804 86.6873V86.1552C228.266 86.1552 228.707 86.1463 229.134 86.1286C229.56 86.1108 229.966 86.102 230.357 86.102V86.1049ZM243.769 109.682C243.769 109.15 244 108.621 244.462 108.089C244.924 107.557 245.454 107.311 246.059 107.344C246.802 107.379 247.442 107.681 247.976 108.246C248.509 108.813 249.057 109.422 249.626 110.078C250.192 110.735 250.849 111.335 251.596 111.884C252.342 112.434 253.299 112.706 254.469 112.706C255.003 112.706 255.569 112.6 256.173 112.387C256.774 112.174 257.334 111.876 257.85 111.485C258.362 111.095 258.789 110.602 259.127 109.999C259.464 109.395 259.633 108.707 259.633 107.926C259.633 106.652 259.251 105.582 258.49 104.713C257.725 103.847 256.777 103.084 255.643 102.428C254.508 101.775 253.276 101.154 251.942 100.569C250.612 99.9835 249.38 99.3391 248.242 98.6296C247.108 97.9231 246.157 97.0984 245.395 96.1613C244.631 95.2243 244.252 94.0626 244.252 92.6821C244.252 91.5854 244.509 90.6897 245.025 90.001C245.537 89.3122 246.115 88.7801 246.755 88.4077C247.395 88.0352 248.014 87.7899 248.618 87.6657C249.223 87.5416 249.611 87.4972 249.789 87.5327C249.007 88.3131 248.618 89.4098 248.618 90.8257C248.618 92.0643 248.992 93.1019 249.735 93.9325C250.479 94.7661 251.421 95.4992 252.556 96.1377C253.69 96.7762 254.923 97.3851 256.256 97.9704C257.586 98.5557 258.827 99.2001 259.983 99.9096C261.135 100.619 262.092 101.441 262.856 102.378C263.618 103.315 264 104.494 264 105.91C264 107.326 263.671 108.399 263.016 109.336C262.359 110.273 261.509 111.036 260.463 111.621C259.417 112.207 258.235 112.629 256.922 112.895C255.61 113.161 254.315 113.294 253.039 113.294C251.939 113.294 250.829 113.197 249.712 113.002C248.595 112.807 247.599 112.55 246.731 112.23C245.86 111.911 245.152 111.533 244.601 111.089C244.05 110.646 243.778 110.179 243.778 109.682H243.769Z"
    fill="currentColor" />
  <path
    d="M83.4177 60.086C91.6447 58.2503 94.6754 45.8054 85.1627 44.15C78.3933 42.9676 78.8051 47.041 72.6163 47.8125C68.0836 48.3771 65.044 45.2231 60.0847 46.2961C55.3357 47.3277 50.9393 52.8437 49.3099 56.0687C48.5989 57.26 48.3471 59.0839 47.956 60.1244C53.0664 55.7997 59.4241 51.4278 67.6599 57.2777C71.7038 60.151 76.5624 61.6142 83.4177 60.083V60.086Z"
    fill="currentColor" />
  <path
    d="M8.97774 73.0482C0.89887 70.636 -1.24009 58.0138 8.3645 57.0294C15.2021 56.3289 14.5029 60.3609 20.6206 61.564C25.0999 62.4478 28.3558 59.5155 33.2262 60.9373C37.8952 62.3 41.5599 70.0951 42.9582 73.4295C42.9167 74.5469 42.5049 74.742 42.4634 76.0397C37.673 71.3662 33.5195 66.1104 24.8926 71.3632C20.6532 73.9438 15.7057 75.0583 8.97774 73.0511V73.0482Z"
    fill="currentColor" />
  <path
    d="M50.5394 41.0905C50.489 39.5416 53.7448 35.7431 54.7166 34.7114C57.7591 31.4716 61.7526 28.6397 66.1194 27.5578C70.5484 26.4611 75.5255 28.0101 77.4097 32.4944C78.411 34.877 77.386 37.4753 75.3181 38.8912C72.9481 40.5171 69.8611 40.3574 67.2896 39.3228C64.6855 38.2764 63.4561 37.5403 59.6196 38.0636C55.786 38.5868 50.6579 42.9824 50.6579 42.9824L50.5364 41.0905H50.5394Z"
    fill="currentColor" />
  <path
    d="M42.3212 87.1366C40.6533 85.4073 39.3083 83.8111 35.7355 81.5763C32.3849 79.4775 17.9276 73.5595 14.1592 82.9154C12.361 87.7751 18.8697 92.4013 25.5977 88.3456C28.0003 86.8971 29.0964 85.9749 32.9655 85.8803C36.8346 85.7857 39.5068 86.977 42.2324 89.5812C42.2324 88.5584 42.3212 87.1366 42.3212 87.1366Z"
    fill="currentColor" />
  <path
    d="M30.7969 94.905C26.8034 96.5161 26.7027 100.4 29.052 101.494C31.1198 102.458 33.3714 101.955 37.1753 100.335C39.9216 99.1676 44.2854 99.008 45.3904 101.326C45.6156 100.956 45.1831 99.3568 45.1831 99.3568C42.9789 97.2994 37.6345 92.1471 30.7969 94.905Z"
    fill="currentColor" />
  <path
    d="M54.678 16.8334C58.6982 15.1928 63.6368 16.993 63.6368 20.0288C63.6368 22.7898 61.8148 24.6461 56.7044 24.856C51.8755 25.0541 50.2668 24.8028 48.7737 29.0595C48.2937 28.9442 47.7012 29.5975 47.7012 29.5975C47.0287 26.8129 46.9191 19.9993 54.678 16.8363V16.8334Z"
    fill="currentColor" />
  <path
    d="M38.0996 28.0574C38.0996 28.0574 39.4979 28.5451 39.9364 28.8851C40.3778 29.225 41.8887 30.1916 42.0191 32.2136C42.0517 32.7309 42.0694 33.0354 42.0694 33.0354L41.8591 33.0442C41.8591 33.0442 41.4325 31.5278 40.1201 30.8538C39.3913 30.4813 38.3899 30.2419 38.1766 29.3847C37.9633 28.5274 38.0967 28.0544 38.0967 28.0544L38.0996 28.0574Z"
    fill="currentColor" />
  <path
    d="M31.345 49.6601C31.5287 49.1516 32.0353 48.6727 32.3612 48.3062C33.1403 47.4223 33.9224 46.5385 34.6601 45.6221C37.593 41.9596 39.2017 39.9111 39.5453 39.58C39.9334 39.2105 40.5408 39.5386 40.2771 40.0973C39.655 41.398 38.3011 43.952 36.1443 46.4291C35.4866 47.1829 34.8349 47.9426 34.1416 48.6639C33.8158 49.0009 33.4069 49.462 33.0603 49.7753C32.687 50.1153 32.0353 50.8188 31.4161 50.3133C31.3124 50.2276 31.2828 50.0739 31.2887 49.9409C31.2946 49.8463 31.3124 49.7547 31.345 49.666V49.6601Z"
    fill="currentColor" />
  <path
    d="M39.0447 40.5821L39.1839 40.7388C41.8591 38.3917 42.1228 34.3626 42.0724 33.0383L41.8621 33.0442C41.9124 34.3478 41.6428 38.303 39.0447 40.585V40.5821Z"
    fill="currentColor" />
  <path
    d="M37.2849 43.0297C37.2849 43.0297 38.067 41.3743 38.0107 38.167C37.8833 31.0371 35.5577 23.7623 30.6932 18.3528C29.5527 17.0846 28.6757 15.985 27.2478 15.0538C26.3857 14.4922 25.0851 13.3393 23.9682 13.632C22.9995 13.8891 23.9297 15.7396 23.8053 16.6619C23.6809 17.5871 23.4261 18.9883 23.5209 20.0702C23.6157 21.1521 23.8438 21.699 25.0792 22.9612C26.836 24.7585 28.3706 26.7981 29.6652 28.9383C31.4102 31.8175 31.6768 34.7321 33.1522 37.7502C34.0528 39.5918 35.3533 41.868 36.4672 43.6741L37.2819 43.0238L37.2849 43.0297Z"
    fill="currentColor" />
  <path
    d="M28.338 29.0033C27.4404 27.5874 26.3827 26.2394 25.1681 25.1368C24.7089 24.72 24.0127 23.9219 23.358 23.8214C22.9106 23.7534 22.4307 24.0431 22.2855 24.7644C22.1404 25.4827 21.9626 25.9261 21.5478 26.136C21.1331 26.3459 21.0294 26.9045 21.0116 27.4632C20.9938 28.019 21.1538 28.1343 20.7213 28.5836C20.2858 29.0329 20.3539 29.9699 20.5139 30.7178C20.7598 31.8677 21.5241 32.8343 22.481 33.6443C23.438 34.4542 24.8007 35.4889 27.1174 37.3393C29.4342 39.1898 35.297 43.6327 35.9932 44.1323C36.6894 44.6319 36.4761 43.946 36.4761 43.946C35.7414 43.0179 35.063 42.0158 34.5594 41.3418C33.9076 40.4638 33.2766 39.5711 32.7137 38.6341C32.1567 37.7059 31.665 36.7393 31.2917 35.7224C30.6844 34.067 30.2252 32.4235 29.3956 30.8449C29.0727 30.2301 28.7172 29.6123 28.335 29.0092L28.338 29.0033Z"
    fill="currentColor" />
  <path
    d="M35.5874 45.7581C35.5874 45.7581 34.0735 47.3307 32.8529 47.8717C31.6324 48.4126 24.7741 50.1685 23.5624 50.5971C22.4692 50.9844 21.8115 52.3973 20.3658 52.016C19.8473 51.88 19.323 51.549 18.8312 51.5844C18.2446 51.6258 17.9987 52.1609 17.5928 52.4801C17.1188 52.8526 16.3486 52.9294 15.6346 52.6722C14.657 52.3234 14.2511 51.2593 13.309 51.1203C12.5802 51.011 11.5789 51.0169 10.8767 50.3429C10.2013 49.6926 10.7168 49.3497 10.2635 48.6905C9.85466 48.0963 9.02514 47.7032 9.02514 46.9848C9.02514 46.0567 10.2131 45.7078 11.0723 45.4891C12.4321 45.1432 20.4873 45.09 23.512 45.1107C27.8818 45.1403 35.5874 45.7581 35.5874 45.7581Z"
    fill="currentColor" />
  <path
    d="M36.7753 45.3029C36.7753 45.3029 27.2508 38.5956 24.8718 37.1708C22.8514 35.9618 20.9287 35.0721 20.2384 35.1548C19.5481 35.2376 19.5748 35.678 19.0356 35.5746C18.4964 35.4711 17.498 35.2642 17.2196 36.0741C16.9411 36.8841 17.2699 36.9935 16.8374 37.3305C16.4049 37.6674 16.0138 37.4162 15.5131 37.8921C15.3946 38.0044 14.7014 38.8765 14.8288 38.8617C15.2613 38.8085 15.6405 38.7346 16.2538 38.7848C17.3884 38.8735 18.0935 38.9444 18.9912 39.1277C20.0103 39.3406 20.8576 39.5711 21.8559 39.8638C25.9235 41.0491 35.066 44.4456 36.7783 45.3029H36.7753Z"
    fill="currentColor" />
  <path
    d="M36.1236 45.3354C36.1236 45.3354 32.5952 43.8781 30.0444 43.1716C27.944 42.5892 25.1088 41.5369 22.9876 41.0314C19.5541 40.2155 16.5145 39.1987 14.1 40.0589C12.6335 40.5821 13.0838 42.536 12.3373 43.4997C12.0855 43.8249 11.2737 44.1589 10.8027 44.3303C10.7405 44.354 10.7582 44.4515 10.8234 44.4427C12.989 44.2328 23.1595 44.4042 26.279 44.5609C29.6119 44.7264 33.9165 45.291 35.5489 45.5453C35.9636 45.6103 36.1206 45.3295 36.1206 45.3295L36.1236 45.3354Z"
    fill="currentColor" />
  <path
    d="M69.3871 67.5056C69.3871 67.5056 68.285 66.5183 67.7755 66.2966C67.2659 66.0749 65.8883 65.5842 64.0516 66.4444C63.5805 66.6631 63.2902 66.8021 63.2902 66.8021L63.382 66.9913C63.382 66.9913 64.7329 66.2611 65.9535 67.0829C66.6319 67.5411 67.3252 68.3037 68.1784 68.0761C69.0346 67.8485 69.3841 67.5056 69.3841 67.5056H69.3871Z"
    fill="currentColor" />
  <path
    d="M53.6619 83.8111C54.0204 83.4061 54.1952 82.7321 54.364 82.271C54.764 81.1654 55.1639 80.0539 55.6172 78.9661C57.4214 74.6385 58.4494 72.2471 58.5738 71.7859C58.713 71.2686 58.1294 70.8962 57.768 71.3957C56.9266 72.5634 55.3328 74.9784 54.1951 78.0557C53.8485 78.9927 53.496 79.9298 53.1968 80.8846C53.0575 81.331 52.8502 81.9103 52.7405 82.3656C52.622 82.8563 52.3169 83.7638 53.0605 84.0623C53.1849 84.1126 53.333 84.0623 53.4486 83.9943C53.5286 83.9441 53.5997 83.882 53.6619 83.8111Z"
    fill="currentColor" />
  <path
    d="M57.9309 72.7082L57.7265 72.6639C58.5027 69.1964 62.117 67.3903 63.305 66.7962L63.4028 66.9824C62.2355 67.5647 58.6893 69.3383 57.9369 72.7082H57.9309Z"
    fill="currentColor" />
  <path
    d="M56.6274 75.4248C56.6274 75.4248 57.7058 73.9438 60.5498 72.451C66.8749 69.1285 74.3849 67.6652 81.4773 69.3147C83.1393 69.7019 84.7302 70.3079 86.2351 71.106C87.1446 71.5879 88.7829 72.1732 89.0614 73.2906C89.3043 74.2601 87.2305 74.3399 86.4781 74.8927C85.7256 75.4455 84.4132 75.9746 83.4177 76.4121C82.4223 76.8496 81.8298 76.9146 80.1264 76.4417C77.703 75.7707 75.17 75.41 72.6666 75.3066C69.2982 75.1647 66.6082 76.3353 63.2487 76.4978C61.1986 76.5983 58.5708 76.554 56.4496 76.4476L56.6274 75.4218V75.4248Z"
    fill="currentColor" />
  <path
    d="M73.2562 76.4978C74.933 76.6013 76.6246 76.8792 78.18 77.4083C78.7665 77.6093 79.8034 77.834 80.2063 78.3572C80.4819 78.7178 80.4582 79.2765 79.8953 79.7495C79.3324 80.2224 79.0302 80.5919 79.045 81.056C79.0598 81.5201 78.6184 81.8778 78.1385 82.1616C77.6585 82.4454 77.4778 82.3596 77.2942 82.9568C77.1105 83.5539 76.2513 83.9441 75.5196 84.1628C74.3909 84.4998 73.1733 84.2959 72.003 83.8524C70.8299 83.4061 69.2656 82.7114 66.5253 81.5733C63.7849 80.4353 57.0599 77.4497 56.2837 77.0802C55.5105 76.7107 56.2156 76.5688 56.2156 76.5688C57.3858 76.7639 58.5916 76.8762 59.427 76.9915C60.5113 77.1393 61.6015 77.2605 62.6947 77.3019C63.776 77.3433 64.8633 77.3078 65.9357 77.1452C67.6836 76.8792 69.3486 76.489 71.135 76.4565C71.8312 76.4446 72.5422 76.4565 73.2562 76.5008V76.4978Z"
    fill="currentColor" />
  <path
    d="M55.0454 78.2242C55.0454 78.2242 54.3936 80.3052 54.5033 81.6354C54.6158 82.9627 56.3726 89.8088 56.58 91.074C56.7666 92.218 56.0438 93.8379 57.0747 94.9198C57.4421 95.3071 57.9872 95.6056 58.1946 96.052C58.4405 96.587 58.0879 97.057 58.005 97.5655C57.9043 98.1596 58.2094 98.8691 58.7782 99.3716C59.5544 100.057 60.6861 99.9007 61.2608 100.657C61.7082 101.243 61.9837 101.754 62.911 102.041C63.8086 102.319 63.859 101.701 64.6589 101.781C65.3758 101.852 66.1224 102.387 66.7534 102.044C67.5681 101.6 67.3044 100.391 67.0822 99.5342C66.7327 98.1774 62.9021 91.1095 61.4267 88.4727C59.2967 84.6653 55.0454 78.2212 55.0454 78.2212V78.2242Z"
    fill="currentColor" />
  <path
    d="M54.8765 76.9649C54.8765 76.9649 65.3551 82.067 67.7488 83.4622C69.7841 84.6476 71.4905 85.901 71.7512 86.5454C72.0119 87.1898 71.612 87.379 71.9616 87.7987C72.3111 88.2185 72.9748 88.9959 72.3941 89.6285C71.8164 90.2611 71.5616 90.0276 71.4757 90.5656C71.3898 91.1036 71.7986 91.3253 71.6179 91.9933C71.5764 92.153 71.1439 93.1787 71.0965 93.0575C70.9336 92.6525 70.818 92.2889 70.4773 91.7746C69.8552 90.8257 69.4523 90.2404 68.8568 89.5458C68.1814 88.7565 67.5681 88.1269 66.8304 87.3938C63.8323 84.4052 56.4467 78.0438 54.8706 76.9619L54.8765 76.9649Z"
    fill="currentColor" />
  <path
    d="M55.1609 77.5502C55.1609 77.5502 58.1383 79.9357 59.9869 81.8276C61.5067 83.3854 63.7997 85.3571 65.2632 86.9711C67.6333 89.5812 69.9885 91.7509 70.3944 94.2754C70.6403 95.8125 68.7087 96.3564 68.2199 97.4709C68.0569 97.8463 68.1547 98.7183 68.2287 99.212C68.2376 99.277 68.1458 99.3095 68.1191 99.2474C67.26 97.2521 62.2148 88.4402 60.5765 85.7857C58.8256 82.9509 56.26 79.4568 55.2498 78.1503C54.995 77.8192 55.1639 77.5472 55.1639 77.5472L55.1609 77.5502Z"
    fill="currentColor" />
  <path
    d="M46.4333 102.608C46.2081 102.608 45.9889 102.487 45.8763 102.274C43.1034 97.0866 41.625 90.7045 41.6013 83.8111C41.5806 77.2162 42.8752 70.4528 45.3431 64.254C50.0565 52.8762 50.8801 41.3418 47.7901 29.9611C47.6983 29.6241 47.6331 29.3344 47.5827 29.0477C47.5235 28.7048 47.7516 28.3796 48.0953 28.3205C48.4389 28.2614 48.7648 28.489 48.824 28.8319C48.8685 29.0802 48.9248 29.3344 49.0048 29.63C52.1688 41.2856 51.3304 53.092 46.5103 64.7269C44.1017 70.772 42.8397 77.3728 42.8604 83.8081C42.8812 90.4946 44.3091 96.6757 46.9843 101.683C47.1472 101.991 47.0317 102.369 46.7266 102.535C46.6318 102.585 46.531 102.608 46.4303 102.608H46.4333Z"
    fill="currentColor" />
</svg>